PathFileType  4	(X/Y/Z) C:\Users\antoi\Documents\MyRepositories\mobilecap\ResultsAnalysis
DataRate	CameraRate	NumFrames	NumMarkers	Units	OrigDataRate	OrigDataStartFrame	OrigNumFrames
100.0	100.0	4	51	mm	100.0	1	1351
Frame#	Time	r_knee			r_shank_antsup			r_ankle			r_calc			r_5meta			r_toe			L_knee			L_shank_antsup			L_ankle			L_calc			L_5meta			L_toe			r_sh2			r_sh3			r_sh4			L_sh2			L_sh3			r_thigh1			r_thigh2			r_thigh3			r_thigh4			r_thigh5			L_thigh1			L_thigh2			L_thigh3			L_thigh4			r.ASIS			r.PSIS			L.ASIS			L.PSIS			C7			R_Shoulder			L_Shoulder			R_Sternum			L_Sternum			R_humerus			R_elbow_med			R_elbow_lat			R_forearm			R_wrist_radius			R_wrist_ulna			L_humerus			L_elbow_med			L_elbow_lat			L_forearm			L_wrist_radius			L_wrist_ulna			R_HJC			L_HJC			R_HJC_reg			L_HJC_reg			
		X1	Y1	Z1	X2	Y2	Z2	X3	Y3	Z3	X4	Y4	Z4	X5	Y5	Z5	X6	Y6	Z6	X7	Y7	Z7	X8	Y8	Z8	X9	Y9	Z9	X10	Y10	Z10	X11	Y11	Z11	X12	Y12	Z12	X13	Y13	Z13	X14	Y14	Z14	X15	Y15	Z15	X16	Y16	Z16	X17	Y17	Z17	X18	Y18	Z18	X19	Y19	Z19	X20	Y20	Z20	X21	Y21	Z21	X22	Y22	Z22	X23	Y23	Z23	X24	Y24	Z24	X25	Y25	Z25	X26	Y26	Z26	X27	Y27	Z27	X28	Y28	Z28	X29	Y29	Z29	X30	Y30	Z30	X31	Y31	Z31	X32	Y32	Z32	X33	Y33	Z33	X34	Y34	Z34	X35	Y35	Z35	X36	Y36	Z36	X37	Y37	Z37	X38	Y38	Z38	X39	Y39	Z39	X40	Y40	Z40	X41	Y41	Z41	X42	Y42	Z42	X43	Y43	Z43	X44	Y44	Z44	X45	Y45	Z45	X46	Y46	Z46	X47	Y47	Z47	X48	Y48	Z48	X49	Y49	Z49	X50	Y50	Z50	X51	Y51	Z51	

1	0.00000000	-221.76355	551.28205	-434.30367	-190.21344	454.18252	-433.70940	-290.08784	123.63195	-445.03563	-365.06917	73.70374	-500.42885	-189.02353	47.32020	-376.74398	-120.20149	74.32068	-429.57608	-225.25618	552.61718	-831.99902	-236.60420	467.70608	-861.72088	-288.03467	128.18895	-837.39332	-362.09100	74.53880	-779.18774	-184.88181	49.99455	-894.04183	-116.30547	75.10362	-839.75007	-221.65498	348.78047	-403.78806	-255.29879	480.56624	-404.91495	-300.21298	374.71013	-394.58168	-323.43289	478.17232	-840.23834	-325.21483	356.15781	-849.78834	-121.76064	870.03460	-425.76827	-124.05115	759.80652	-426.79697	-180.24585	735.27508	-402.59660	-234.42805	866.47462	-432.42531	-229.03162	750.93523	-426.02132	-114.25619	835.36849	-819.23675	-124.29490	694.84332	-825.43397	-226.09723	841.50427	-828.27882	-238.84984	705.01428	-833.80305	-100.13335	1083.74879	-485.46318	-278.90531	1087.97094	-566.85284	-84.85658	1076.54711	-739.14038	-274.47362	1090.15171	-675.35536	-241.15770	1629.01209	-615.20427	-177.81668	1567.03016	-443.60348	-181.51824	1572.57557	-784.07427	-117.31890	1547.71032	-583.37449	-116.08675	1544.70225	-637.92539	-167.92431	1402.73268	-386.80264	-246.43196	1204.69467	-443.46220	-230.74155	1216.28788	-360.97062	-158.60705	1057.59318	-345.66116	-107.49801	974.61821	-356.96034	-150.67300	972.84830	-337.69225	-194.92832	1440.95668	-858.97974	-228.13606	1207.42201	-784.95448	-217.82171	1215.55372	-865.31701	-169.54580	1158.09559	-888.03808	-98.62285	992.05843	-885.96718	-138.26209	981.14138	-898.15156	-175.06351	963.98169	-509.29204	-168.65561	965.90387	-716.14466	-151.61195	991.98725	-525.19504	-144.76549	995.35629	-692.81907	
2	0.01000000	-221.71744	551.32976	-434.28529	-190.17372	454.23898	-433.70965	-290.01952	123.64480	-444.99968	-365.16919	73.76310	-500.51696	-189.05093	47.28977	-376.76745	-120.20989	74.32540	-429.56357	-225.26409	552.49587	-831.92846	-236.58123	467.69434	-861.73328	-288.02835	128.18094	-837.40335	-362.01603	74.58534	-779.20875	-184.91062	49.94834	-893.99900	-116.31533	75.06518	-839.70666	-221.73314	348.75439	-403.79221	-255.28987	480.56244	-404.92770	-300.19189	374.73470	-394.59582	-323.40149	478.15334	-840.29069	-325.17704	356.14774	-849.87699	-121.78270	870.04018	-425.74961	-123.93207	759.87174	-426.80906	-180.24072	735.28284	-402.59989	-234.41517	866.46298	-432.41071	-229.05439	750.98338	-426.13580	-114.07576	835.40404	-819.49635	-124.25771	694.81174	-825.39128	-225.99924	841.53148	-828.40643	-238.82007	704.98456	-833.84776	-100.10992	1083.71466	-485.52338	-278.92232	1087.98318	-566.93417	-84.77964	1076.45666	-739.16985	-274.63764	1090.23405	-675.47944	-240.96406	1629.04894	-615.20521	-177.60951	1566.98340	-443.66180	-181.46786	1572.57338	-784.18302	-117.17951	1547.72877	-583.54027	-115.94134	1544.67287	-638.02274	-167.81267	1402.77125	-386.80133	-246.41620	1204.71572	-443.44632	-230.71786	1216.34169	-360.83603	-158.59918	1057.63842	-345.64253	-107.50226	974.66131	-356.91722	-150.73218	972.83654	-337.76338	-194.82938	1440.88170	-858.96376	-228.13526	1207.41710	-784.95487	-217.83607	1215.55445	-865.38614	-169.56570	1158.10573	-888.11300	-98.60257	992.05763	-885.99943	-138.26988	981.13228	-898.19459	-175.16511	963.97535	-509.35736	-168.73160	965.88128	-716.20932	-151.47264	991.87457	-525.22545	-144.85627	995.35028	-692.83881	
3	0.02000000	-221.67634	551.37101	-434.27457	-190.17856	454.23681	-433.70059	-289.96339	123.70011	-444.97658	-365.19993	73.75879	-500.53212	-189.05821	47.28065	-376.78574	-120.21429	74.32398	-429.54979	-225.25249	552.44668	-831.90707	-236.56209	467.68479	-861.75273	-288.02884	128.17380	-837.40083	-362.05058	74.58004	-779.20850	-184.89916	49.96235	-894.01435	-116.31481	75.06316	-839.70480	-221.75381	348.73396	-403.78671	-255.28783	480.55183	-404.94162	-300.24728	374.74544	-394.64233	-323.37568	478.13481	-840.33805	-325.15220	356.13313	-849.91970	-121.71941	870.08221	-425.80418	-123.93720	759.87493	-426.80761	-180.22803	735.30768	-402.64196	-234.39012	866.43586	-432.42016	-229.02315	751.01396	-426.15042	-114.01172	835.41164	-819.58790	-124.22877	694.77346	-825.33817	-225.94028	841.53839	-828.45815	-238.77364	704.99275	-833.88344	-100.11501	1083.72432	-485.57897	-278.91242	1087.96966	-566.97362	-84.72254	1076.42433	-739.19389	-274.87767	1090.42176	-675.57002	-240.80833	1629.05628	-615.21640	-177.41944	1566.99773	-443.71720	-181.37040	1572.57065	-784.20461	-117.01177	1547.72270	-583.65706	-115.78574	1544.62654	-638.09118	-167.68763	1402.72973	-386.92667	-246.40908	1204.71565	-443.43737	-230.70598	1216.37753	-360.73100	-158.58948	1057.69344	-345.56146	-107.49355	974.70740	-356.78175	-150.70054	972.88290	-337.66707	-194.75053	1440.85444	-858.97415	-228.13455	1207.41873	-784.95734	-217.85269	1215.58511	-865.52348	-169.58457	1158.10707	-888.14684	-98.60151	992.05612	-886.02990	-138.28583	981.14477	-898.26135	-175.26810	963.99001	-509.43070	-168.83826	965.92824	-716.28248	-151.19419	991.65648	-525.29954	-144.96704	995.44090	-692.90355	
4	0.03000000	-221.63700	551.42279	-434.27333	-190.20310	454.21762	-433.69231	-289.93258	123.77534	-444.97177	-365.15966	73.73421	-500.51394	-189.06060	47.27064	-376.78609	-120.20786	74.31544	-429.52539	-225.22219	552.43822	-831.92443	-236.55157	467.68819	-861.78483	-288.02836	128.16814	-837.39697	-362.13331	74.55357	-779.21029	-184.87647	49.99397	-894.04217	-116.30844	75.07489	-839.72132	-221.71257	348.73182	-403.78136	-255.28849	480.54468	-404.95337	-300.31042	374.76476	-394.71221	-323.35817	478.14420	-840.39444	-325.13814	356.12473	-849.92882	-121.60704	870.14352	-425.90486	-123.97540	759.84132	-426.80644	-180.22122	735.32404	-402.70511	-234.34743	866.42590	-432.45210	-228.99045	751.05128	-426.14283	-114.02752	835.39694	-819.57445	-124.20099	694.76886	-825.33639	-225.89788	841.53325	-828.46238	-238.71774	705.00978	-833.91226	-100.10875	1083.79136	-485.64530	-278.84684	1087.95986	-566.98895	-84.67765	1076.42643	-739.21546	-275.01450	1090.55730	-675.61679	-240.66902	1629.04390	-615.22450	-177.22495	1567.02681	-443.79411	-181.22317	1572.57371	-784.16801	-116.84948	1547.64267	-583.62284	-115.62954	1544.56898	-638.15075	-167.57236	1402.59325	-387.17799	-246.38131	1204.70712	-443.36773	-230.73914	1216.39985	-360.70624	-158.58056	1057.77205	-345.38970	-107.49062	974.75620	-356.61019	-150.63917	972.96741	-337.50624	-194.67213	1440.86487	-859.01406	-228.13472	1207.42239	-784.96128	-217.88781	1215.62258	-865.62868	-169.60751	1158.10763	-888.16313	-98.61993	992.06233	-886.06459	-138.31036	981.14251	-898.28034	-175.27829	964.03759	-509.46903	-168.87308	965.97432	-716.32159	-150.92989	991.52994	-525.36249	-145.01763	995.53714	-692.94687	
